<?xml version="1.0" standalone="no"?>
<!DOCTYPE svg PUBLIC "-//W3C//DTD SVG 20010904//EN"
 "http://www.w3.org/TR/2001/REC-SVG-20010904/DTD/svg10.dtd">
<svg version="1.0" xmlns="http://www.w3.org/2000/svg"
 width="1366.000000pt" height="633.000000pt" viewBox="0 0 1366.000000 633.000000"
 preserveAspectRatio="xMidYMid meet">

<g transform="translate(0.000000,633.000000) scale(0.100000,-0.100000)"
fill="#000000" stroke="none">
<path d="M0 3165 l0 -3165 6830 0 6830 0 0 3165 0 3165 -6830 0 -6830 0 0
-3165z m343 2908 c-13 -2 -33 -2 -45 0 -13 2 -3 4 22 4 25 0 35 -2 23 -4z
m2535 -5 c7 -7 12 -33 12 -58 0 -58 -12 -70 -70 -70 -58 0 -70 12 -70 70 0 58
12 70 70 70 25 0 51 -5 58 -12z m-1528 -8 c0 -5 -5 -10 -11 -10 -5 0 -7 5 -4
10 3 6 8 10 11 10 2 0 4 -4 4 -10z m56 -17 c-2 -16 -4 -40 -5 -55 -2 -43 -28
-35 -34 10 -3 24 1 43 11 55 22 25 31 21 28 -10z m926 10 c10 -9 18 -21 18
-26 0 -6 -9 -2 -20 8 -19 17 -21 17 -40 0 -24 -22 -27 -9 -3 17 20 22 22 22
45 1z m3664 -19 c11 -42 -3 -74 -31 -74 -31 0 -49 38 -35 74 16 42 56 42 66 0z
m1129 26 c3 -5 1 -10 -4 -10 -6 0 -11 5 -11 10 0 6 2 10 4 10 3 0 8 -4 11 -10z
m645 0 c0 -5 -5 -10 -11 -10 -5 0 -7 5 -4 10 3 6 8 10 11 10 2 0 4 -4 4 -10z
m120 0 c0 -5 -4 -10 -10 -10 -5 0 -10 5 -10 10 0 6 5 10 10 10 6 0 10 -4 10
-10z m263 -2 c-8 -15 -9 -19 -11 -65 -3 -45 -19 -42 -25 5 -5 42 7 72 29 72
10 0 12 -5 7 -12z m332 2 c3 -5 1 -10 -4 -10 -6 0 -11 5 -11 10 0 6 2 10 4 10
3 0 8 -4 11 -10z m230 0 c3 -5 1 -10 -4 -10 -6 0 -11 5 -11 10 0 6 2 10 4 10
3 0 8 -4 11 -10z m100 0 c3 -5 1 -10 -4 -10 -6 0 -11 5 -11 10 0 6 2 10 4 10
3 0 8 -4 11 -10z m-8445 -10 c0 -5 -22 -10 -50 -10 -27 0 -50 5 -50 10 0 6 23
10 50 10 28 0 50 -4 50 -10z m910 -41 l0 -50 -32 3 c-30 3 -33 6 -33 38 0 30
3 35 23 34 12 0 22 5 22 13 0 7 5 13 10 13 6 0 10 -23 10 -51z m40 1 c0 -27
-4 -50 -10 -50 -5 0 -10 23 -10 50 0 28 5 50 10 50 6 0 10 -22 10 -50z m254
28 c27 -43 -32 -101 -64 -63 -12 14 -11 16 12 10 16 -4 29 -2 34 6 5 9 2 11
-8 6 -26 -9 -52 16 -43 42 8 27 52 26 69 -1z m81 -3 c1 -11 4 -25 8 -32 14
-23 -4 -44 -37 -41 -29 3 -31 6 -32 43 0 52 3 57 34 53 19 -2 27 -9 27 -23z
m94 8 c-1 -10 1 -26 6 -36 9 -21 -10 -47 -34 -47 -25 0 -41 20 -41 50 0 32 17
50 48 50 16 0 23 -5 21 -17z m1508 -25 l17 -42 17 42 c10 23 21 42 24 42 3 0
4 -24 3 -52 -1 -47 -2 -49 -5 -13 l-4 39 -18 -39 -18 -40 -18 40 -19 40 -6
-40 c-7 -40 -7 -40 -9 13 -1 63 13 67 36 10z m724 17 c14 5 22 0 30 -19 15
-32 -2 -57 -37 -54 -22 2 -24 6 -23 53 1 27 3 42 6 32 3 -12 11 -16 24 -12z
m1236 3 l10 -23 12 23 c6 12 16 22 22 22 5 0 3 -13 -6 -30 -8 -16 -15 -38 -15
-50 0 -11 -4 -20 -10 -20 -5 0 -10 10 -10 23 0 12 -7 31 -15 41 -17 22 -19 36
-7 36 5 0 13 -10 19 -22z m283 13 c0 -5 9 -11 20 -14 16 -4 20 -13 18 -44 -1
-36 -1 -37 -5 -5 -6 42 -33 44 -33 2 0 -16 -4 -30 -10 -30 -5 0 -10 23 -10 50
0 28 5 50 10 50 6 0 10 -4 10 -9z m402 -31 c4 -42 -9 -77 -19 -52 -2 6 -16 12
-29 12 l-25 0 23 40 c29 51 45 51 50 0z m248 27 c0 -8 10 -13 23 -13 18 1 22
-5 25 -36 2 -22 -1 -38 -7 -38 -6 0 -11 14 -11 30 0 20 -5 30 -15 30 -10 0
-15 -10 -15 -30 0 -16 -4 -30 -10 -30 -5 0 -10 23 -10 50 0 28 5 50 10 50 6 0
10 -6 10 -13z m259 -21 c-13 -14 -11 -53 4 -60 6 -3 3 -5 -8 -3 -14 2 -21 12
-26 39 -6 42 6 63 26 45 8 -7 10 -16 4 -21z m680 0 c-13 -14 -11 -53 4 -60 6
-3 3 -5 -8 -3 -14 2 -21 12 -26 39 -6 42 6 63 26 45 8 -7 10 -16 4 -21z m1276
-26 c0 -23 -5 -40 -11 -40 -13 0 -24 66 -16 88 9 25 26 -7 27 -48z m35 47 c0
-8 10 -13 23 -13 18 1 22 -5 25 -36 2 -22 -1 -38 -7 -38 -6 0 -11 14 -11 30 0
20 -5 30 -15 30 -10 0 -15 -10 -15 -30 0 -16 -4 -30 -10 -30 -5 0 -10 23 -10
50 0 28 5 50 10 50 6 0 10 -6 10 -13z m230 4 c0 -5 10 -11 23 -13 18 -2 22 -9
22 -38 0 -32 -3 -35 -32 -38 l-33 -3 0 50 c0 28 5 51 10 51 6 0 10 -4 10 -9z
m120 -41 c0 -27 -4 -50 -10 -50 -5 0 -10 23 -10 50 0 28 5 50 10 50 6 0 10
-22 10 -50z m27 -27 c-2 -16 -4 -3 -4 27 0 30 2 43 4 28 2 -16 2 -40 0 -55z
m513 27 c0 -27 -4 -50 -10 -50 -5 0 -10 23 -10 50 0 28 5 50 10 50 6 0 10 -22
10 -50z m-8601 23 c6 -10 11 -12 11 -5 0 6 5 12 10 12 6 0 10 -20 10 -44 0
-36 -4 -46 -21 -51 -13 -4 -28 0 -42 12 -33 28 -36 34 -25 64 11 33 41 39 57
12z m3695 -33 c1 -22 -2 -40 -5 -40 -8 0 -17 79 -10 86 9 9 14 -6 15 -46z
m-3532 25 c-2 -5 -11 -9 -20 -8 -10 2 -8 -2 6 -9 13 -6 21 -19 20 -27 -4 -18
-58 -28 -58 -11 0 7 8 9 20 5 11 -4 20 -2 20 4 0 6 -6 11 -14 11 -19 0 -29 17
-22 36 6 17 53 16 48 -1z m72 9 c9 -3 16 -15 16 -25 0 -14 -7 -19 -26 -19 -15
0 -23 -4 -19 -10 4 -6 16 -8 27 -4 14 4 18 2 14 -5 -4 -6 -18 -11 -31 -11 -29
0 -45 41 -25 65 14 17 21 18 44 9z m94 -13 c3 -9 -2 -11 -17 -6 -16 5 -21 2
-21 -13 0 -26 11 -34 28 -19 13 10 14 9 10 -3 -7 -24 -45 -24 -58 -1 -15 29 4
63 32 59 12 -2 23 -9 26 -17z m86 -3 c8 -13 8 -23 0 -35 -28 -45 -89 -9 -64
38 13 24 48 22 64 -3z m84 -20 c2 -22 -1 -38 -7 -38 -6 0 -11 14 -11 31 0 38
-24 35 -28 -4 -5 -39 -22 -33 -22 6 0 41 3 44 38 43 24 -1 27 -5 30 -38z m162
2 c0 -22 -4 -40 -10 -40 -5 0 -10 18 -10 40 0 22 5 40 10 40 6 0 10 -18 10
-40z m128 28 c20 -20 14 -38 -14 -38 -14 0 -23 -4 -20 -9 3 -5 16 -7 29 -4 17
4 19 3 11 -6 -19 -20 -59 -9 -62 17 -6 41 30 66 56 40z m1915 5 c3 -5 -6 -9
-20 -10 -19 -1 -22 1 -12 8 17 11 26 11 32 2z m85 -5 c7 -7 11 -26 11 -42 -2
-31 -2 -31 -8 4 -4 22 -12 35 -21 35 -9 0 -17 -13 -21 -35 l-6 -35 -2 37 c-1
32 7 44 30 47 3 1 10 -4 17 -11z m75 5 c3 -5 -6 -9 -20 -10 -19 -1 -22 1 -12
8 17 11 26 11 32 2z m85 -2 c21 -13 12 -95 -12 -99 -10 -2 -22 0 -28 6 -6 6 0
8 16 5 20 -4 26 -1 26 11 0 10 -4 15 -9 12 -31 -19 -56 35 -29 62 14 14 19 15
36 3z m67 -1 c-3 -5 -12 -10 -18 -10 -7 0 -6 4 3 10 19 12 23 12 15 0z m129 2
c2 -4 -4 -8 -14 -8 -10 0 -16 4 -14 8 3 4 9 8 14 8 5 0 11 -4 14 -8z m246 -3
c12 -8 10 -9 -7 -4 -29 8 -30 -8 -1 -27 12 -8 18 -19 14 -26 -8 -14 -46 -16
-46 -3 0 5 9 7 20 4 11 -3 20 -1 20 5 0 6 -9 14 -20 17 -20 6 -26 25 -13 38 9
9 15 9 33 -4z m80 1 c12 -8 9 -10 -10 -8 -21 3 -25 -1 -25 -22 0 -20 5 -25 23
-24 14 0 19 -3 13 -9 -29 -29 -68 26 -41 59 15 17 20 17 40 4z m184 -16 c9
-24 -13 -57 -34 -51 -13 3 -20 -1 -23 -17 -2 -11 -5 3 -6 32 0 28 3 52 7 52 4
0 8 -12 7 -27 0 -18 6 -29 16 -31 24 -5 32 28 12 50 -15 16 -15 18 -1 13 9 -4
19 -13 22 -21z m121 6 c-21 -23 -13 -53 12 -48 12 2 18 13 18 30 -1 15 3 24 7
22 14 -9 9 -41 -8 -55 -33 -27 -70 24 -39 55 23 23 32 20 10 -4z m124 -29 c-2
-34 -2 -34 -6 -6 -3 17 -10 36 -15 43 -8 9 -7 11 6 6 11 -4 16 -17 15 -43z
m746 9 c0 -31 -3 -35 -27 -38 -22 -3 -29 2 -34 22 -8 32 12 58 40 54 17 -2 21
-10 21 -38z m55 -25 c9 0 17 13 21 35 l6 35 2 -42 c1 -41 0 -43 -29 -43 -29 0
-30 2 -29 43 l2 42 6 -35 c4 -22 12 -35 21 -35z m228 23 c3 -36 2 -38 -27 -38
-41 0 -43 34 -3 48 l27 10 -28 1 c-17 1 -26 5 -22 12 4 5 17 9 28 7 17 -2 23
-11 25 -40z m37 22 c3 -11 10 -20 15 -20 5 0 12 9 15 20 3 11 11 20 16 20 5 0
2 -17 -6 -37 -19 -45 -23 -49 -34 -37 -14 15 -31 74 -21 74 5 0 12 -9 15 -20z
m109 14 c9 -3 16 -15 16 -25 0 -14 -7 -19 -26 -19 -15 0 -23 -4 -19 -10 4 -6
16 -8 27 -4 14 4 18 2 14 -5 -4 -6 -18 -11 -31 -11 -29 0 -45 41 -25 65 14 17
21 18 44 9z m354 -12 c3 -9 -3 -11 -23 -6 -24 6 -26 4 -23 -17 2 -18 9 -23 26
-22 13 2 21 -1 17 -7 -3 -6 -17 -10 -30 -10 -30 0 -45 41 -24 66 14 17 50 15
57 -4z m160 -25 c3 -38 3 -38 -29 -35 -42 4 -47 23 -12 43 24 14 24 15 6 12
-13 -3 -23 -2 -23 2 0 14 14 22 35 19 15 -2 21 -12 23 -41z m84 18 c13 -29 -3
-55 -33 -55 -11 0 -19 -7 -19 -15 0 -8 -4 -15 -10 -15 -5 0 -10 24 -10 53 0
53 0 54 31 55 23 0 33 -5 41 -23z m112 19 c9 -3 16 -15 16 -25 0 -14 -7 -19
-26 -19 -15 0 -23 -4 -19 -10 4 -6 16 -8 27 -4 14 4 18 2 14 -5 -4 -6 -18 -11
-31 -11 -29 0 -45 41 -25 65 14 17 21 18 44 9z m76 -3 c0 -5 -6 -11 -14 -14
-8 -3 -16 -18 -19 -34 -3 -20 -4 -16 -6 15 -1 36 2 42 19 42 11 0 20 -4 20 -9z
m118 -43 c-3 -47 -6 -53 -27 -56 -13 -2 -28 2 -35 8 -8 9 -6 11 11 6 12 -4 24
-2 28 4 3 5 -3 10 -14 10 -26 0 -41 29 -30 58 6 16 16 22 39 22 l31 0 -3 -52z
m66 46 c9 -3 16 -15 16 -25 0 -14 -7 -19 -26 -19 -15 0 -23 -4 -19 -10 4 -6
16 -8 27 -4 14 4 18 2 14 -5 -4 -6 -18 -11 -31 -11 -29 0 -45 41 -25 65 14 17
21 18 44 9z m93 -39 c1 -35 1 -36 -5 -10 -4 17 -14 30 -22 30 -8 0 -18 -13
-21 -30 -6 -28 -7 -27 -8 11 -1 39 1 41 27 40 24 -1 27 -5 29 -41z m81 33 c22
-22 13 -38 -19 -38 -18 0 -28 -4 -24 -10 3 -6 18 -7 32 -4 18 5 24 3 19 -5
-11 -17 -54 -13 -64 7 -22 40 24 82 56 50z m130 -1 c6 -5 12 -23 12 -39 0 -27
-2 -29 -32 -26 -43 4 -49 32 -11 47 20 8 21 10 6 7 -13 -2 -25 0 -28 5 -11 17
-35 -4 -35 -32 0 -16 -4 -29 -10 -29 -5 0 -10 18 -10 40 l0 40 48 -2 c26 -1
53 -6 60 -11z m79 -49 c-2 -13 -4 -3 -4 22 0 25 2 35 4 23 2 -13 2 -33 0 -45z
m81 53 c8 -5 12 -21 10 -37 -3 -25 -7 -29 -33 -29 -24 0 -31 5 -33 23 -6 39
25 63 56 43z m89 -36 c1 -35 1 -36 -5 -10 -4 17 -14 30 -22 30 -8 0 -18 -13
-21 -30 -6 -28 -7 -27 -8 11 -1 39 1 41 27 40 24 -1 27 -5 29 -41z m78 35 c3
-6 -4 -10 -17 -10 l-23 0 24 -19 c13 -10 21 -23 17 -30 -9 -14 -56 -15 -56 0
0 6 9 8 20 4 11 -4 20 -2 20 4 0 6 -6 11 -14 11 -19 0 -29 17 -22 35 6 17 42
20 51 5z m93 -4 c-10 -7 -18 -25 -18 -40 0 -14 -4 -26 -10 -26 -5 0 -10 18
-10 40 0 37 2 40 28 40 24 -1 25 -2 10 -14z m70 2 c20 -20 14 -38 -13 -38 -14
0 -25 -5 -25 -11 0 -7 10 -9 28 -4 20 5 24 4 16 -5 -19 -19 -59 -8 -62 18 -6
41 30 66 56 40z m130 -31 c2 -21 -1 -37 -7 -37 -6 0 -11 14 -11 30 0 17 -4 30
-10 30 -5 0 -10 -13 -10 -30 0 -16 -4 -30 -10 -30 -5 0 -10 14 -10 30 0 20 -5
30 -15 30 -10 0 -15 -10 -15 -30 0 -16 -4 -30 -10 -30 -5 0 -10 18 -10 40 l0
40 53 -3 52 -2 3 -38z m80 0 c3 -38 3 -38 -29 -35 -42 4 -47 23 -12 43 24 14
24 15 6 12 -13 -3 -23 -2 -23 2 0 14 14 22 35 19 15 -2 21 -12 23 -41z m32 3
c0 -22 -4 -40 -10 -40 -5 0 -10 18 -10 40 0 22 5 40 10 40 6 0 10 -18 10 -40z
m76 -5 c1 -32 1 -34 -3 -7 -6 42 -33 44 -33 2 0 -16 -4 -30 -10 -30 -5 0 -10
18 -10 41 0 38 1 40 28 37 24 -3 27 -7 28 -43z m44 5 c0 -22 -4 -40 -10 -40
-5 0 -10 18 -10 40 0 22 5 40 10 40 6 0 10 -18 10 -40z m77 -5 c1 -35 1 -36
-5 -10 -4 17 -14 30 -22 30 -8 0 -18 -13 -21 -30 -6 -28 -7 -27 -8 11 -1 39 1
41 27 40 24 -1 27 -5 29 -41z m91 -7 c-3 -47 -6 -53 -27 -56 -13 -2 -28 2 -35
8 -8 9 -6 11 11 6 12 -4 24 -2 28 4 3 5 -3 10 -14 10 -26 0 -41 29 -30 58 6
16 16 22 39 22 l31 0 -3 -52z m160 43 c8 -5 12 -21 10 -37 -3 -25 -7 -29 -33
-29 -24 0 -31 5 -33 23 -6 39 25 63 56 43z m72 -1 c0 -5 -7 -10 -15 -10 -10 0
-15 -10 -15 -30 0 -16 -4 -30 -10 -30 -5 0 -10 18 -10 40 0 36 3 40 25 40 14
0 25 -4 25 -10z m187 -52 c-2 -13 -4 -3 -4 22 0 25 2 35 4 23 2 -13 2 -33 0
-45z m78 52 c3 -6 -4 -10 -17 -10 l-23 0 24 -19 c13 -10 21 -23 17 -30 -9 -14
-56 -15 -56 0 0 6 9 8 20 4 11 -4 20 -2 20 4 0 6 -6 11 -14 11 -19 0 -29 17
-22 35 6 17 42 20 51 5z m165 -30 c0 -22 -4 -40 -10 -40 -5 0 -10 18 -10 40 0
22 5 40 10 40 6 0 10 -18 10 -40z m100 0 c0 -22 -4 -40 -10 -40 -5 0 -10 18
-10 40 0 22 5 40 10 40 6 0 10 -18 10 -40z m78 -2 c2 -22 -1 -38 -7 -38 -6 0
-11 14 -11 30 0 20 -5 30 -15 30 -10 0 -15 -10 -15 -30 0 -16 -4 -30 -10 -30
-5 0 -10 18 -10 39 0 38 1 39 33 38 29 -2 32 -5 35 -39z m92 1 c0 -20 -3 -44
-6 -53 -7 -18 -49 -22 -60 -5 -4 7 0 9 14 5 11 -4 23 -2 27 4 3 5 -3 10 -14
10 -27 0 -45 34 -31 59 7 13 20 19 40 19 28 -1 30 -4 30 -39z m146 19 c7 -24
21 -23 29 2 3 11 10 20 16 20 5 0 0 -23 -11 -50 -11 -28 -20 -53 -20 -55 0 -3
-7 -5 -16 -5 -13 0 -14 3 -5 14 8 10 7 23 -3 52 -8 21 -15 33 -15 26 -1 -8 -9
-10 -26 -6 -22 5 -25 3 -25 -21 0 -25 3 -27 28 -20 20 5 24 4 16 -5 -19 -19
-59 -8 -62 18 -5 33 14 50 53 49 24 -1 37 -6 41 -19z m122 4 c3 -9 -3 -11 -23
-6 -24 6 -26 4 -23 -17 2 -18 9 -23 26 -22 13 2 21 -1 17 -7 -3 -6 -17 -10
-30 -10 -30 0 -45 41 -24 66 14 17 50 15 57 -4z m110 6 c22 -22 13 -38 -19
-38 -18 0 -28 -4 -24 -10 3 -6 18 -7 32 -4 18 5 24 3 19 -5 -11 -17 -54 -13
-64 7 -22 40 24 82 56 50z m-8983 -43 l0 -40 -65 0 c-64 0 -65 0 -68 28 -6 52
2 58 70 55 l63 -3 0 -40z m3349 13 c-3 -4 -16 -8 -30 -8 -16 0 -23 -4 -18 -11
3 -6 15 -9 25 -6 11 3 19 1 19 -4 0 -13 -34 -11 -48 3 -20 20 -14 36 13 30 19
-3 25 0 25 14 0 16 2 16 9 4 6 -8 7 -18 5 -22z m166 -23 c8 0 18 13 21 30 7
30 7 30 8 -6 1 -33 -1 -36 -26 -35 -25 1 -28 5 -30 36 -1 34 -1 34 5 5 4 -17
14 -30 22 -30z m302 20 c-2 -19 -6 -35 -8 -35 -2 0 -4 16 -4 35 0 19 4 35 8
35 4 0 6 -16 4 -35z m55 -17 c-2 -13 -4 -5 -4 17 -1 22 1 32 4 23 2 -10 2 -28
0 -40z m160 0 c-2 -13 -4 -5 -4 17 -1 22 1 32 4 23 2 -10 2 -28 0 -40z m125
17 c-2 -19 -6 -35 -8 -35 -2 0 -4 16 -4 35 0 19 4 35 8 35 4 0 6 -16 4 -35z
m-1132 -10 c0 -21 -5 -25 -30 -25 -23 0 -30 4 -30 20 0 12 7 20 18 20 14 0 15
-2 2 -10 -18 -11 -7 -25 14 -17 9 4 13 13 10 22 -3 8 -1 15 5 15 6 0 11 -11
11 -25z m160 0 c0 -21 -5 -25 -30 -25 -23 0 -30 4 -30 20 0 12 7 20 18 20 14
0 15 -2 2 -10 -18 -11 -7 -25 14 -17 9 4 13 13 10 22 -3 8 -1 15 5 15 6 0 11
-11 11 -25z m265 12 c10 -8 15 -19 11 -25 -8 -14 -42 -16 -50 -3 -3 4 6 6 19
3 15 -2 25 0 25 7 0 6 -6 11 -14 11 -8 0 -18 5 -21 10 -9 14 8 12 30 -3z
m-1505 -12 c11 10 20 14 20 8 0 -5 -9 -18 -20 -28 -19 -17 -21 -17 -40 0 -11
10 -20 23 -20 28 0 6 9 2 20 -8 19 -17 21 -17 40 0z m-1766 -424 c3 -4 -5 -6
-18 -4 -37 7 -40 -14 -6 -32 20 -10 30 -22 28 -33 -4 -20 -45 -29 -61 -13 -7
7 -2 10 18 8 35 -3 44 19 13 28 -27 9 -38 23 -31 42 6 14 49 18 57 4z m355
-16 c8 0 16 -7 18 -15 4 -13 3 -13 -6 0 -13 19 -28 4 -34 -35 -2 -17 -4 -6 -5
25 0 30 2 48 6 40 4 -8 13 -15 21 -15z m143 -27 c-3 -61 -12 -60 -12 2 0 29 3
50 7 47 3 -4 6 -26 5 -49z m258 4 c0 -43 -2 -48 -24 -50 -34 -2 -52 22 -38 53
7 14 17 25 23 25 7 0 5 -8 -6 -20 -21 -23 -13 -53 12 -48 11 2 18 13 19 28 2
47 4 60 9 60 3 0 5 -22 5 -48z m-298 -3 c-3 -20 0 -35 9 -41 12 -8 11 -9 -1
-5 -14 3 -32 71 -22 82 11 11 18 -6 14 -36z m-388 25 c9 -3 16 -15 16 -25 0
-14 -7 -19 -26 -19 -15 0 -23 -4 -18 -11 3 -6 15 -8 27 -5 14 3 17 2 10 -5
-31 -31 -70 23 -43 57 14 16 13 16 34 8z m80 0 c11 -4 16 -19 16 -42 0 -41 -7
-40 -13 3 -3 20 -10 30 -20 29 -9 -1 -14 2 -11 7 6 11 8 11 28 3z m68 -6 c-6
-7 -12 -26 -15 -43 -4 -28 -4 -27 -6 7 -1 31 6 43 28 47 2 1 -1 -5 -7 -11z
m43 -8 c-23 -25 -13 -54 17 -47 16 5 18 3 9 -6 -8 -8 -16 -9 -29 -1 -23 15
-26 38 -7 58 23 23 32 20 10 -4z m281 -26 c1 -29 1 -32 -3 -9 -3 17 -10 36
-16 44 -10 11 -9 13 3 9 10 -3 15 -19 16 -44z m59 36 c-3 -5 -12 -10 -18 -10
-7 0 -6 4 3 10 19 12 23 12 15 0z m229 -6 c19 -19 20 -25 3 -48 -18 -24 -51
-17 -55 12 -3 23 13 52 29 52 4 0 15 -7 23 -16z m51 -4 c-23 -25 -13 -54 17
-47 16 5 18 3 9 -6 -8 -8 -16 -9 -29 -1 -23 15 -26 38 -7 58 23 23 32 20 10
-4z m99 12 c2 -4 -4 -8 -14 -8 -10 0 -16 4 -14 8 3 4 9 8 14 8 5 0 11 -4 14
-8z m-350 -34 c-3 -4 -16 -8 -30 -8 -16 0 -23 -4 -18 -11 3 -6 15 -9 25 -6 11
3 19 1 19 -4 0 -13 -34 -11 -48 3 -20 20 -14 36 13 30 19 -3 25 0 25 14 0 16
2 16 9 4 6 -8 7 -18 5 -22z m351 -1 c10 -8 15 -19 11 -25 -8 -14 -42 -16 -50
-3 -3 4 6 6 19 3 15 -2 25 0 25 7 0 6 -6 11 -14 11 -8 0 -18 5 -21 10 -9 14 8
12 30 -3z m-852 -4 c-18 -7 -16 -21 5 -26 15 -4 15 -5 0 -6 -9 0 -20 4 -23 9
-8 13 3 30 18 29 9 0 9 -2 0 -6z m902 -23 c3 -5 1 -10 -4 -10 -6 0 -11 5 -11
10 0 6 2 10 4 10 3 0 8 -4 11 -10z m40 0 c3 -5 1 -10 -4 -10 -6 0 -11 5 -11
10 0 6 2 10 4 10 3 0 8 -4 11 -10z m40 0 c3 -5 1 -10 -4 -10 -6 0 -11 5 -11
10 0 6 2 10 4 10 3 0 8 -4 11 -10z m2515 -270 c0 -14 -20 -22 -37 -16 -12 5
-13 9 -3 21 11 14 40 10 40 -5z m3380 -6 c0 -17 -26 -19 -36 -3 -7 12 15 31
28 23 4 -3 8 -12 8 -20z m-4456 -5 c14 -11 26 -25 26 -30 0 -12 -37 -12 -45 1
-9 14 -48 13 -63 -2 -17 -17 -15 -64 4 -82 17 -18 24 -19 48 -10 22 9 20 21
-5 27 -33 9 -17 32 24 35 35 3 37 2 37 -27 0 -69 -96 -100 -139 -45 -66 85 30
198 113 133z m2406 6 c0 -8 -7 -15 -15 -15 -8 0 -15 -4 -15 -10 0 -5 7 -10 15
-10 8 0 15 -7 15 -15 0 -8 -7 -15 -15 -15 -11 0 -15 -12 -15 -50 0 -43 -3 -50
-20 -50 -17 0 -20 7 -20 49 0 34 -4 51 -15 55 -8 3 -15 10 -15 16 0 5 7 10 15
10 8 0 15 8 15 18 0 25 9 32 42 32 18 0 28 -5 28 -15z m901 -21 l22 -37 19 37
c12 23 26 36 38 36 26 0 25 -4 -10 -67 -16 -29 -30 -66 -30 -83 0 -23 -4 -30
-20 -30 -16 0 -20 7 -20 35 0 21 -12 54 -30 83 -35 58 -36 62 -11 62 11 0 29
-15 42 -36z m499 16 c0 -15 -7 -20 -25 -20 -24 0 -25 -2 -25 -70 0 -63 -2 -70
-20 -70 -18 0 -20 7 -20 70 0 68 -1 70 -25 70 -18 0 -25 5 -25 20 0 18 7 20
70 20 63 0 70 -2 70 -20z m180 -8 c0 -26 3 -28 30 -24 42 6 60 -13 60 -63 0
-54 -13 -64 -78 -63 l-52 0 0 82 c0 46 3 86 7 89 16 16 33 5 33 -21z m620 -61
l0 -89 -55 -1 c-60 0 -75 12 -75 66 0 45 21 67 58 61 30 -4 32 -2 32 24 0 21
5 28 20 28 19 0 20 -7 20 -89z m-3880 54 c0 -8 7 -15 15 -15 8 0 15 -7 15 -15
0 -8 -7 -15 -15 -15 -10 0 -15 -11 -15 -35 0 -24 5 -35 15 -35 8 0 15 -7 15
-15 0 -21 -56 -20 -64 1 -3 9 -6 31 -6 50 0 19 -4 34 -10 34 -5 0 -10 7 -10
15 0 8 5 15 10 15 6 0 10 7 10 15 0 8 9 15 20 15 11 0 20 -7 20 -15z m270 0
c0 -8 5 -15 10 -15 6 0 10 -7 10 -15 0 -8 -4 -15 -10 -15 -17 0 -11 -60 7 -78
16 -16 15 -17 -6 -20 -41 -6 -51 4 -51 53 0 25 -4 45 -10 45 -5 0 -10 7 -10
15 0 8 5 15 10 15 6 0 10 7 10 15 0 8 9 15 20 15 11 0 20 -7 20 -15z m620 0
c0 -8 5 -15 10 -15 6 0 10 -7 10 -15 0 -8 -4 -15 -10 -15 -17 0 -11 -60 7 -78
16 -16 15 -17 -6 -20 -41 -6 -51 4 -51 54 0 45 -1 46 -26 40 -14 -4 -31 -2
-38 3 -7 6 -17 6 -26 1 -12 -7 -11 -10 5 -15 51 -17 65 -26 65 -43 0 -28 -20
-42 -60 -42 -34 0 -60 14 -60 33 0 5 18 6 40 2 26 -4 40 -3 40 4 0 6 -11 11
-23 11 -35 0 -62 33 -47 59 8 16 20 21 50 21 21 0 42 -5 45 -10 7 -11 35 12
35 29 0 6 9 11 20 11 11 0 20 -7 20 -15z m-1466 -31 c9 -8 16 -26 16 -40 0
-22 -4 -24 -46 -24 -29 0 -43 -4 -39 -11 4 -6 22 -8 46 -4 21 4 39 3 39 -2 0
-38 -90 -46 -114 -11 -34 49 -7 108 49 108 18 0 41 -7 49 -16z m146 -4 c5 -10
10 -39 10 -64 0 -39 -3 -46 -19 -46 -17 0 -20 8 -23 48 -3 39 -6 47 -23 47
-17 0 -20 -8 -23 -47 -3 -40 -6 -48 -23 -48 -17 0 -19 7 -19 64 l0 64 55 1
c44 0 57 -3 65 -19z m134 4 c9 -8 16 -26 16 -40 0 -22 -4 -24 -46 -24 -29 0
-43 -4 -39 -11 4 -6 22 -8 46 -4 21 4 39 3 39 -2 0 -38 -90 -46 -114 -11 -34
49 -7 108 49 108 18 0 41 -7 49 -16z m116 4 c0 -9 3 -9 12 0 7 7 29 12 50 12
45 0 58 -19 58 -84 l0 -45 -57 2 c-53 2 -58 4 -61 26 -4 29 20 51 55 51 13 0
23 4 23 9 0 5 -26 8 -57 7 l-58 -2 -3 -47 c-3 -39 -6 -47 -23 -47 -17 0 -19 7
-19 65 l0 65 40 0 c24 0 40 -5 40 -12z m322 -5 c10 -9 18 -27 18 -40 0 -21 -4
-23 -46 -23 -30 0 -43 -4 -38 -11 4 -7 20 -8 41 -4 30 5 34 4 31 -12 -2 -13
-14 -19 -45 -21 -33 -2 -44 1 -57 20 -20 28 -20 57 0 86 18 27 69 30 96 5z
m208 -48 c0 -58 -2 -65 -20 -65 -18 0 -20 7 -20 65 0 58 2 65 20 65 18 0 20
-7 20 -65z m120 53 c0 -9 3 -9 12 0 7 7 21 12 33 12 33 0 45 -20 45 -77 0 -46
-3 -53 -20 -53 -17 0 -20 7 -20 51 0 43 -3 50 -17 47 -14 -2 -19 -15 -21 -51
-3 -39 -6 -47 -23 -47 -16 0 -19 7 -19 50 0 38 -4 50 -15 50 -11 0 -15 -12
-15 -50 0 -43 -3 -50 -20 -50 -18 0 -20 7 -20 64 l0 63 50 2 c32 0 50 -4 50
-11z m214 -4 c9 -8 16 -26 16 -40 0 -22 -4 -24 -46 -24 -29 0 -43 -4 -39 -11
4 -6 22 -8 46 -4 21 4 39 3 39 -2 0 -38 -90 -46 -114 -11 -34 49 -7 108 49
108 18 0 41 -7 49 -16z m344 4 c7 -7 12 -36 12 -65 l0 -54 -57 3 c-53 3 -58 5
-61 27 -4 29 20 51 55 51 13 0 23 5 23 11 0 7 -12 9 -35 5 -26 -5 -35 -3 -35
7 0 7 3 17 7 20 11 12 78 8 91 -5z m220 -55 c3 -58 1 -63 -18 -63 -17 0 -20 6
-20 50 0 38 -4 50 -15 50 -11 0 -15 -12 -15 -50 0 -43 -3 -50 -20 -50 -17 0
-20 7 -20 51 0 43 -3 50 -17 47 -14 -2 -19 -15 -21 -51 -3 -39 -6 -47 -23 -47
-17 0 -19 7 -19 64 l0 64 93 -1 92 -2 3 -62z m139 55 c18 -15 17 -93 -2 -108
-8 -7 -28 -10 -45 -8 -27 4 -30 2 -30 -24 0 -21 -5 -28 -20 -28 -19 0 -20 7
-20 89 l0 89 52 0 c29 1 58 -4 65 -10z m133 -3 c10 -12 9 -16 -4 -21 -9 -3
-23 -1 -30 5 -10 9 -16 9 -21 1 -8 -13 -9 -13 30 -26 59 -19 39 -74 -26 -74
-29 0 -41 5 -50 21 -10 20 -9 21 30 14 49 -8 55 7 9 20 -33 10 -45 32 -34 61
7 19 80 19 96 -1z m274 -7 c34 -49 7 -108 -49 -108 -43 0 -65 22 -65 65 0 43
22 65 65 65 24 0 39 -7 49 -22z m116 6 c0 -8 -9 -14 -19 -14 -22 0 -31 -19
-31 -66 0 -27 -4 -34 -20 -34 -18 0 -20 7 -20 64 l0 64 45 0 c32 0 45 -4 45
-14z m103 -26 l14 -43 13 43 c10 33 18 42 36 42 l22 0 -30 -77 c-17 -43 -35
-84 -40 -90 -15 -18 -58 -16 -58 2 0 8 7 15 15 15 20 0 19 20 -5 82 -25 65
-25 68 -1 68 14 0 24 -12 34 -42z m197 27 c6 -8 12 -30 12 -50 0 -48 -17 -65
-63 -65 -28 0 -42 6 -53 22 -36 51 -7 108 53 108 22 0 44 -6 51 -15z m70 -30
c0 -33 5 -47 16 -52 21 -8 34 14 34 60 0 30 4 37 20 37 18 0 20 -7 20 -64 l0
-64 -52 0 c-29 -1 -58 4 -65 10 -8 6 -13 33 -13 64 0 47 2 54 20 54 17 0 20
-7 20 -45z m190 29 c0 -8 -9 -14 -19 -14 -22 0 -31 -19 -31 -66 0 -27 -4 -34
-20 -34 -18 0 -20 7 -20 64 l0 64 45 0 c32 0 45 -4 45 -14z m314 -6 c34 -49 7
-108 -49 -108 -43 0 -65 22 -65 65 0 43 22 65 65 65 24 0 39 -7 49 -22z m66
-23 c0 -33 5 -47 16 -52 21 -8 34 14 34 60 0 30 4 37 20 37 18 0 20 -7 20 -64
l0 -64 -52 0 c-29 -1 -58 4 -65 10 -8 6 -13 33 -13 64 0 47 2 54 20 54 17 0
20 -7 20 -45z m272 -2 c2 -35 7 -48 18 -48 11 0 16 13 18 48 3 39 6 47 23 47
17 0 19 -7 19 -64 l0 -64 -47 0 c-27 0 -54 4 -60 10 -8 6 -13 33 -13 64 0 47
3 54 19 54 17 0 20 -8 23 -47z m352 31 c9 -8 16 -26 16 -40 0 -22 -4 -24 -46
-24 -29 0 -43 -4 -39 -11 4 -6 22 -8 46 -4 21 4 39 3 39 -2 0 -38 -90 -46
-114 -11 -34 49 -7 108 49 108 18 0 41 -7 49 -16z m129 -26 l14 -43 13 43 c9
29 19 42 32 42 23 0 23 -7 -3 -75 -17 -45 -25 -55 -43 -55 -19 0 -27 10 -45
59 -26 71 -26 71 -2 71 14 0 24 -12 34 -42z m127 -23 c0 -58 -2 -65 -20 -65
-18 0 -20 7 -20 65 0 58 2 65 20 65 18 0 20 -7 20 -65z m274 49 c9 -8 16 -26
16 -40 0 -22 -4 -24 -46 -24 -29 0 -43 -4 -39 -11 4 -6 22 -8 46 -4 21 4 39 3
39 -2 0 -38 -90 -46 -114 -11 -34 49 -7 108 49 108 18 0 41 -7 49 -16z m138
-1 c22 -20 23 -70 1 -95 -20 -22 -70 -23 -95 -1 -22 20 -23 70 -1 95 20 22 70
23 95 1z m138 2 c10 -12 9 -16 -4 -21 -9 -3 -22 -1 -29 4 -8 7 -18 7 -27 2
-12 -7 -11 -10 5 -15 51 -17 65 -26 65 -43 0 -28 -20 -42 -60 -42 -34 0 -60
14 -60 33 0 5 18 6 40 2 26 -4 40 -3 40 4 0 6 -11 11 -23 11 -35 0 -62 33 -47
59 13 26 80 30 100 6z m-7886 -381 c19 -7 22 -64 4 -82 -7 -7 -25 -12 -40 -12
-27 0 -28 2 -28 50 0 46 2 50 24 50 13 0 31 -3 40 -6z m206 -10 c0 -8 5 -12
10 -9 18 11 40 -15 40 -46 0 -16 -4 -29 -10 -29 -5 0 -10 14 -10 30 0 20 -5
30 -15 30 -10 0 -15 -10 -15 -30 0 -16 -4 -30 -10 -30 -5 0 -10 23 -10 50 0
28 5 50 10 50 6 0 10 -7 10 -16z m99 -7 c25 6 45 -21 37 -52 -5 -20 -13 -25
-36 -25 -30 0 -30 1 -29 53 1 28 3 45 6 36 2 -10 11 -15 22 -12z m341 -27 c0
-49 -1 -50 -30 -50 -35 0 -52 25 -39 59 7 17 15 22 29 18 13 -3 20 0 20 9 0 8
5 14 10 14 6 0 10 -22 10 -50z m-552 -12 c3 -36 2 -38 -27 -38 -38 0 -43 31
-8 48 l22 11 -23 0 c-14 1 -20 5 -17 12 4 5 17 9 28 7 17 -2 23 -11 25 -40z
m67 32 c3 -6 -4 -10 -17 -10 -22 -1 -22 -2 5 -16 16 -8 26 -21 24 -27 -4 -15
-57 -22 -57 -9 0 6 9 8 20 5 11 -3 20 0 20 6 0 6 -6 11 -14 11 -19 0 -29 17
-22 35 6 17 32 20 41 5z m255 -4 c20 -26 8 -61 -22 -64 -22 -3 -29 2 -34 22
-11 44 29 74 56 42z m78 2 c7 -7 12 -25 12 -41 0 -26 -3 -28 -32 -25 -41 4
-46 23 -11 42 27 14 27 15 5 16 -13 0 -20 4 -17 10 8 14 28 13 43 -2z m60 -2
c-10 -7 -18 -25 -18 -40 0 -14 -4 -26 -10 -26 -10 0 -15 62 -5 71 2 3 14 5 27
6 21 2 22 1 6 -11z m1662 -196 c18 -18 20 -33 20 -140 0 -107 -2 -122 -20
-140 -20 -20 -33 -20 -1175 -20 -1142 0 -1155 0 -1175 20 -30 30 -30 250 0
280 20 20 33 20 1175 20 1142 0 1155 0 1175 -20z m1220 -38 c0 -43 -2 -48 -25
-50 -43 -3 -57 57 -17 73 14 5 14 3 -1 -13 -20 -22 -12 -55 12 -50 9 2 17 14
18 28 0 14 1 33 2 43 2 38 11 14 11 -31z m267 -40 c23 -3 26 3 36 68 3 20 5
18 6 -8 1 -42 -14 -72 -37 -72 -29 0 -42 21 -40 65 l1 40 6 -45 c5 -37 10 -46
28 -48z m128 34 c1 -45 0 -47 -13 -27 -19 27 -39 27 -45 -1 -2 -13 -5 1 -6 30
l-1 53 33 -3 c31 -3 32 -4 32 -52z m63 -39 c24 -4 24 -4 -5 -6 l-33 -1 2 53 2
52 3 -47 c4 -42 7 -47 31 -51z m-836 42 c-3 -20 0 -35 9 -41 12 -8 11 -9 -1
-5 -14 3 -32 71 -22 82 11 11 18 -6 14 -36z m-138 25 c9 -3 16 -15 16 -25 0
-14 -7 -19 -26 -19 -15 0 -23 -4 -18 -11 3 -6 15 -8 27 -5 14 3 17 2 10 -5
-31 -31 -70 23 -43 57 14 16 13 16 34 8z m94 -15 c3 -11 2 -11 -7 1 -13 19
-28 4 -34 -35 -4 -28 -4 -27 -6 7 -1 34 11 50 33 44 6 -1 11 -9 14 -17z m116
15 c9 -3 16 -15 16 -25 0 -14 -7 -19 -26 -19 -15 0 -23 -4 -18 -11 3 -6 15 -8
27 -5 14 3 17 2 10 -5 -31 -31 -70 23 -43 57 14 16 13 16 34 8z m370 0 c9 -3
16 -15 16 -25 0 -14 -7 -19 -26 -19 -15 0 -23 -4 -18 -11 3 -6 15 -8 27 -5 14
3 17 2 10 -5 -31 -31 -70 23 -43 57 14 16 13 16 34 8z m61 -14 c-21 -23 -13
-53 12 -48 12 2 18 13 18 30 -1 15 3 24 7 22 14 -9 9 -41 -8 -55 -33 -27 -70
24 -39 55 23 23 32 20 10 -4z m-383 -25 c-2 -19 -6 -35 -8 -35 -2 0 -4 16 -4
35 0 19 4 35 8 35 4 0 6 -16 4 -35z m96 10 c-3 -3 -9 2 -12 12 -6 14 -5 15 5
6 7 -7 10 -15 7 -18z m32 -15 c-11 -27 -30 -33 -30 -9 0 6 4 7 10 4 5 -3 12 6
16 20 3 14 9 24 12 21 2 -3 -1 -19 -8 -36z m37 -12 c-2 -13 -4 -5 -4 17 -1 22
1 32 4 23 2 -10 2 -28 0 -40z m313 -578 c18 -18 20 -33 20 -160 0 -127 -2
-142 -20 -160 -19 -19 -33 -20 -450 -20 -417 0 -431 1 -450 20 -18 18 -20 33
-20 160 0 127 2 142 20 160 19 19 33 20 450 20 417 0 431 -1 450 -20z m-3613
-336 c2 -7 -6 -10 -22 -7 -33 7 -32 -5 1 -17 16 -7 24 -16 22 -27 -4 -22 -36
-29 -52 -13 -8 9 -6 11 11 6 31 -10 39 12 9 24 -25 9 -34 29 -19 44 10 10 46
3 50 -10z m291 7 c8 -5 12 -22 10 -42 -2 -28 -7 -35 -30 -37 -31 -4 -52 25
-41 55 11 31 36 41 61 24z m132 -21 c0 -5 -6 -10 -12 -13 -10 -3 -10 -9 0 -26
10 -17 10 -21 -2 -21 -13 0 -29 57 -19 72 5 9 33 -1 33 -12z m-393 -42 c-2
-13 -4 -5 -4 17 -1 22 1 32 4 23 2 -10 2 -28 0 -40z m73 5 c0 -46 -20 -67 -43
-44 -8 8 -5 11 14 12 l24 0 -23 9 c-43 18 -36 71 9 67 16 -1 19 -9 19 -44z
m78 10 c2 -19 -1 -33 -7 -33 -6 0 -11 11 -11 25 0 14 -4 25 -10 25 -5 0 -10
-11 -10 -25 0 -14 -4 -25 -10 -25 -5 0 -10 15 -10 34 0 30 3 33 28 32 23 -1
27 -6 30 -33z m167 -18 c5 0 13 14 16 30 6 29 7 29 8 -7 1 -34 -2 -38 -24 -38
-22 0 -25 4 -24 38 1 36 2 36 8 7 3 -16 11 -30 16 -30z"/>
<path d="M2770 6010 c0 -27 5 -50 10 -50 6 0 10 23 10 50 0 28 -4 50 -10 50
-5 0 -10 -22 -10 -50z"/>
<path d="M2810 6010 c0 -49 1 -50 30 -50 29 0 30 1 30 50 0 49 -1 50 -30 50
-29 0 -30 -1 -30 -50z"/>
<path d="M5945 6031 c-8 -27 3 -63 18 -58 7 2 12 19 12 37 0 38 -20 52 -30 21z"/>
<path d="M1230 6000 c0 -11 7 -20 15 -20 8 0 15 9 15 20 0 11 -7 20 -15 20 -8
0 -15 -9 -15 -20z"/>
<path d="M1524 6039 c-10 -17 13 -36 27 -22 12 12 4 33 -11 33 -5 0 -12 -5
-16 -11z"/>
<path d="M1617 6044 c-8 -8 1 -24 14 -24 5 0 9 7 9 15 0 15 -12 20 -23 9z"/>
<path d="M1612 5988 c5 -15 28 -18 29 -3 0 6 -7 12 -17 13 -10 3 -15 -1 -12
-10z"/>
<path d="M1707 6043 c-13 -13 -7 -21 13 -16 11 3 17 9 14 14 -6 11 -18 12 -27
2z"/>
<path d="M1707 6004 c-13 -13 -7 -24 14 -24 11 0 19 5 17 12 -5 14 -22 21 -31
12z"/>
<path d="M3971 6016 c-16 -19 -7 -46 14 -46 22 0 30 29 13 46 -13 13 -16 13
-27 0z"/>
<path d="M5867 6016 c-4 -10 -5 -21 -2 -24 9 -9 17 6 13 25 -3 17 -4 17 -11
-1z"/>
<path d="M8632 5998 c2 -12 10 -23 18 -23 22 0 19 39 -3 43 -15 3 -18 -1 -15
-20z"/>
<path d="M898 6013 c7 -3 16 -2 19 1 4 3 -2 6 -13 5 -11 0 -14 -3 -6 -6z"/>
<path d="M1062 5999 c1 -13 8 -23 13 -21 15 3 12 35 -3 40 -9 3 -13 -3 -10
-19z"/>
<path d="M1448 6013 c7 -3 16 -2 19 1 4 3 -2 6 -13 5 -11 0 -14 -3 -6 -6z"/>
<path d="M3604 6016 c-8 -22 3 -49 19 -43 6 2 12 14 12 27 0 27 -22 39 -31 16z"/>
<path d="M5292 5998 c2 -12 10 -23 18 -23 22 0 19 39 -3 43 -15 3 -18 -1 -15
-20z"/>
<path d="M5580 5980 c0 -5 4 -10 9 -10 6 0 13 5 16 10 3 6 -1 10 -9 10 -9 0
-16 -4 -16 -10z"/>
<path d="M5738 6013 c7 -3 16 -2 19 1 4 3 -2 6 -13 5 -11 0 -14 -3 -6 -6z"/>
<path d="M6230 5980 c0 -5 7 -10 15 -10 8 0 15 5 15 10 0 6 -7 10 -15 10 -8 0
-15 -4 -15 -10z"/>
<path d="M6312 5998 c2 -13 10 -23 18 -23 8 0 16 10 18 23 3 17 -2 22 -18 22
-16 0 -21 -5 -18 -22z"/>
<path d="M6448 6013 c7 -3 16 -2 19 1 4 3 -2 6 -13 5 -11 0 -14 -3 -6 -6z"/>
<path d="M6615 6010 c-8 -13 14 -42 26 -34 5 3 9 14 9 25 0 20 -24 26 -35 9z"/>
<path d="M6708 6013 c7 -3 16 -2 19 1 4 3 -2 6 -13 5 -11 0 -14 -3 -6 -6z"/>
<path d="M6878 6013 c7 -3 16 -2 19 1 4 3 -2 6 -13 5 -11 0 -14 -3 -6 -6z"/>
<path d="M7000 5980 c0 -5 4 -10 9 -10 6 0 13 5 16 10 3 6 -1 10 -9 10 -9 0
-16 -4 -16 -10z"/>
<path d="M7160 5995 c0 -26 24 -35 32 -12 7 18 -2 37 -18 37 -8 0 -14 -10 -14
-25z"/>
<path d="M7498 6013 c7 -3 16 -2 19 1 4 3 -2 6 -13 5 -11 0 -14 -3 -6 -6z"/>
<path d="M7690 5980 c0 -5 7 -10 15 -10 8 0 15 5 15 10 0 6 -7 10 -15 10 -8 0
-15 -4 -15 -10z"/>
<path d="M8005 6010 c-8 -13 14 -42 26 -34 5 3 9 14 9 25 0 20 -24 26 -35 9z"/>
<path d="M8180 5995 c0 -26 24 -35 32 -12 7 18 -2 37 -18 37 -8 0 -14 -10 -14
-25z"/>
<path d="M8930 6001 c0 -19 23 -35 34 -24 14 15 5 43 -14 43 -13 0 -20 -7 -20
-19z"/>
<path d="M9338 6013 c7 -3 16 -2 19 1 4 3 -2 6 -13 5 -11 0 -14 -3 -6 -6z"/>
<path d="M270 5985 l0 -35 50 0 50 0 0 35 0 35 -50 0 -50 0 0 -35z"/>
<path d="M607 5534 c-13 -13 -7 -24 14 -24 11 0 19 5 17 12 -5 14 -22 21 -31
12z"/>
<path d="M1354 5525 c-8 -21 2 -45 20 -45 19 0 29 29 15 46 -15 18 -28 18 -35
-1z"/>
<path d="M7106 5122 c-9 -27 3 -54 23 -50 22 5 22 62 -1 66 -9 2 -19 -5 -22
-16z"/>
<path d="M7634 5126 c-10 -26 0 -51 21 -51 16 0 20 7 20 30 0 33 -30 49 -41
21z"/>
<path d="M3195 5130 c-4 -6 5 -10 19 -10 14 0 26 5 26 10 0 6 -9 10 -19 10
-11 0 -23 -4 -26 -10z"/>
<path d="M3475 5130 c-4 -6 5 -10 19 -10 14 0 26 5 26 10 0 6 -9 10 -19 10
-11 0 -23 -4 -26 -10z"/>
<path d="M3710 5088 c-20 -7 -22 -11 -10 -18 10 -6 20 -4 29 5 20 19 12 25
-19 13z"/>
<path d="M3915 5130 c-4 -6 5 -10 19 -10 14 0 26 5 26 10 0 6 -9 10 -19 10
-11 0 -23 -4 -26 -10z"/>
<path d="M4455 5130 c-4 -6 5 -10 19 -10 14 0 26 5 26 10 0 6 -9 10 -19 10
-11 0 -23 -4 -26 -10z"/>
<path d="M4818 5092 c-19 -4 -24 -17 -10 -26 11 -7 35 10 31 21 -2 5 -12 7
-21 5z"/>
<path d="M5156 5122 c-9 -27 3 -54 23 -50 22 5 22 62 -1 66 -9 2 -19 -5 -22
-16z"/>
<path d="M5564 5126 c-9 -23 0 -51 17 -54 19 -4 32 23 24 49 -7 22 -33 25 -41
5z"/>
<path d="M5975 5121 c-8 -26 4 -51 26 -51 15 0 19 7 19 35 0 28 -4 35 -19 35
-11 0 -22 -8 -26 -19z"/>
<path d="M6554 5126 c-9 -23 0 -51 17 -54 19 -4 32 23 24 49 -7 22 -33 25 -41
5z"/>
<path d="M7245 5130 c-4 -6 5 -10 19 -10 14 0 26 5 26 10 0 6 -9 10 -19 10
-11 0 -23 -4 -26 -10z"/>
<path d="M7775 5130 c-4 -6 5 -10 19 -10 14 0 26 5 26 10 0 6 -9 10 -19 10
-11 0 -23 -4 -26 -10z"/>
<path d="M7914 5126 c-10 -26 0 -51 21 -51 16 0 20 7 20 30 0 33 -30 49 -41
21z"/>
<path d="M190 4730 c0 -33 3 -41 16 -38 26 5 41 35 28 56 -6 9 -19 18 -28 20
-13 3 -16 -5 -16 -38z"/>
<path d="M526 4731 c-9 -14 4 -41 20 -41 8 0 14 10 14 25 0 25 -23 35 -34 16z"/>
<path d="M822 4718 c2 -13 10 -23 18 -23 8 0 16 10 18 23 3 17 -2 22 -18 22
-16 0 -21 -5 -18 -22z"/>
<path d="M280 4700 c0 -5 7 -10 15 -10 8 0 15 5 15 10 0 6 -7 10 -15 10 -8 0
-15 -4 -15 -10z"/>
<path d="M610 4715 c0 -28 24 -34 34 -9 8 20 -1 34 -20 34 -8 0 -14 -10 -14
-25z"/>
<path d="M690 4700 c0 -5 7 -10 15 -10 8 0 15 5 15 10 0 6 -7 10 -15 10 -8 0
-15 -4 -15 -10z"/>
<path d="M182 4448 c-15 -15 -16 -60 0 -76 18 -18 56 -14 68 7 14 28 13 31
-12 31 -17 0 -19 -3 -9 -9 7 -5 10 -14 7 -20 -12 -19 -36 -12 -48 14 -10 21
-9 29 5 43 15 14 20 15 38 4 18 -11 20 -11 17 0 -6 17 -50 22 -66 6z"/>
<path d="M828 4435 c-24 -53 36 -103 72 -60 14 17 0 21 -16 5 -18 -18 -44 0
-44 31 0 32 24 49 43 30 17 -17 31 -13 17 4 -20 24 -59 19 -72 -10z"/>
<path d="M932 4410 c1 -33 3 -42 5 -22 6 42 33 44 33 2 0 -16 5 -30 10 -30 6
0 10 16 10 35 0 19 -4 36 -10 37 -5 0 -16 1 -22 2 -7 1 -16 8 -20 16 -4 8 -6
-10 -6 -40z"/>
<path d="M657 4443 c-8 -12 7 -76 18 -80 6 -2 10 16 10 39 0 38 -16 61 -28 41z"/>
<path d="M1177 4443 c-2 -5 -2 -25 0 -45 4 -27 10 -38 22 -38 13 0 13 2 2 9
-9 6 -12 19 -8 40 6 28 -6 52 -16 34z"/>
<path d="M286 4424 c-9 -8 -16 -21 -16 -28 0 -30 51 -49 66 -25 4 7 0 9 -14 5
-11 -4 -23 -2 -27 4 -4 6 4 10 19 10 28 0 34 18 14 38 -16 16 -23 15 -42 -4z
m34 -14 c0 -5 -7 -10 -15 -10 -8 0 -15 5 -15 10 0 6 7 10 15 10 8 0 15 -4 15
-10z"/>
<path d="M361 4395 c1 -37 2 -38 8 -10 9 43 38 45 44 3 4 -28 4 -27 3 7 -1 37
-3 40 -28 40 -26 1 -28 -2 -27 -40z"/>
<path d="M450 4426 c-27 -34 12 -88 43 -57 7 7 4 8 -10 5 -12 -3 -24 -1 -27 5
-5 7 3 11 18 11 19 0 26 5 26 19 0 10 -7 22 -16 25 -21 8 -20 8 -34 -8z m40
-16 c0 -5 -9 -10 -20 -10 -11 0 -20 5 -20 10 0 6 9 10 20 10 11 0 20 -4 20
-10z"/>
<path d="M538 4432 c-13 -2 -18 -13 -18 -38 0 -19 5 -34 10 -34 6 0 10 13 10
29 0 16 6 31 13 34 17 6 5 14 -15 9z"/>
<path d="M590 4429 c-13 -9 -12 -10 2 -5 10 3 20 1 24 -5 3 -6 -3 -13 -15 -16
-12 -3 -21 -13 -21 -24 0 -14 7 -19 30 -19 26 0 30 4 30 28 0 25 -15 52 -29
52 -4 0 -13 -5 -21 -11z m30 -44 c0 -8 -7 -15 -15 -15 -26 0 -18 20 13 29 1 1
2 -6 2 -14z"/>
<path d="M712 4428 c-25 -25 -6 -68 29 -68 10 0 21 5 24 10 4 7 -2 9 -19 4
-16 -4 -26 -2 -26 5 0 6 11 11 25 11 14 0 25 6 25 13 0 16 -20 37 -35 37 -6 0
-16 -5 -23 -12z m38 -18 c0 -5 -7 -10 -15 -10 -8 0 -15 5 -15 10 0 6 7 10 15
10 8 0 15 -4 15 -10z"/>
<path d="M1020 4430 c-12 -8 -8 -10 15 -11 l30 -1 -27 -11 c-39 -15 -38 -47 2
-47 27 0 30 3 30 34 0 22 -6 36 -16 40 -19 7 -16 8 -34 -4z m35 -50 c-3 -5
-13 -10 -21 -10 -8 0 -14 5 -14 10 0 6 9 10 21 10 11 0 17 -4 14 -10z"/>
<path d="M1091 4380 c1 -32 4 -47 7 -35 4 11 16 20 26 20 51 0 43 70 -8 70
-25 1 -26 -1 -25 -55z m49 15 c0 -28 -24 -34 -34 -9 -8 20 1 34 20 34 8 0 14
-10 14 -25z"/>
<path d="M1232 4428 c-25 -25 -6 -68 29 -68 10 0 21 5 24 10 4 7 -2 9 -19 4
-16 -4 -26 -2 -26 5 0 6 11 11 25 11 14 0 25 6 25 13 0 16 -20 37 -35 37 -6 0
-16 -5 -23 -12z m38 -18 c0 -5 -7 -10 -15 -10 -8 0 -15 5 -15 10 0 6 7 10 15
10 8 0 15 -4 15 -10z"/>
<path d="M1318 4432 c-13 -2 -18 -13 -18 -38 0 -19 5 -34 10 -34 6 0 10 13 10
29 0 16 6 31 13 34 17 6 5 14 -15 9z"/>
<path d="M1373 4433 c-20 -7 -15 -31 7 -38 27 -9 26 -29 -1 -22 -15 4 -19 3
-12 -4 14 -14 45 -8 50 8 3 7 -7 18 -21 24 -27 13 -26 32 1 22 11 -4 14 -3 9
5 -8 13 -13 14 -33 5z"/>
<path d="M4010 4529 c0 -15 5 -20 22 -17 34 5 37 38 4 38 -20 0 -26 -5 -26
-21z"/>
<path d="M3127 4524 c-13 -13 -7 -24 14 -24 11 0 19 5 17 12 -5 14 -22 21 -31
12z"/>
<path d="M3337 4524 c-13 -13 -7 -24 14 -24 11 0 19 5 17 12 -5 14 -22 21 -31
12z"/>
<path d="M3707 4524 c-13 -13 -7 -24 14 -24 11 0 19 5 17 12 -5 14 -22 21 -31
12z"/>
<path d="M3152 3778 c-15 -15 -16 -60 0 -76 18 -18 56 -14 68 7 14 28 13 31
-12 31 -17 0 -19 -3 -9 -9 7 -5 10 -14 7 -20 -12 -19 -36 -12 -48 14 -10 21
-9 29 5 43 15 14 20 15 38 4 18 -11 20 -11 17 0 -6 17 -50 22 -66 6z"/>
<path d="M3627 3773 c-8 -12 7 -76 18 -80 6 -2 10 16 10 39 0 38 -16 61 -28
41z"/>
<path d="M3256 3754 c-9 -8 -16 -21 -16 -28 0 -30 51 -49 66 -25 4 7 0 9 -14
5 -11 -4 -23 -2 -27 4 -4 6 4 10 19 10 28 0 34 18 14 38 -16 16 -23 15 -42 -4z
m34 -14 c0 -5 -7 -10 -15 -10 -8 0 -15 5 -15 10 0 6 7 10 15 10 8 0 15 -4 15
-10z"/>
<path d="M3331 3725 c1 -37 2 -38 8 -10 9 43 38 45 44 3 4 -28 4 -27 3 7 -1
37 -3 40 -28 40 -26 1 -28 -2 -27 -40z"/>
<path d="M3420 3756 c-27 -34 12 -88 43 -57 7 7 4 8 -10 5 -12 -3 -24 -1 -27
5 -5 7 3 11 18 11 19 0 26 5 26 19 0 10 -7 22 -16 25 -21 8 -20 8 -34 -8z m40
-16 c0 -5 -9 -10 -20 -10 -11 0 -20 5 -20 10 0 6 9 10 20 10 11 0 20 -4 20
-10z"/>
<path d="M3508 3762 c-13 -2 -18 -13 -18 -38 0 -19 5 -34 10 -34 6 0 10 13 10
29 0 16 6 31 13 34 17 6 5 14 -15 9z"/>
<path d="M3560 3759 c-13 -9 -12 -10 2 -5 10 3 20 1 24 -5 3 -6 -3 -13 -15
-16 -12 -3 -21 -13 -21 -24 0 -14 7 -19 30 -19 26 0 30 4 30 28 0 25 -15 52
-29 52 -4 0 -13 -5 -21 -11z m30 -44 c0 -8 -7 -15 -15 -15 -26 0 -18 20 13 29
1 1 2 -6 2 -14z"/>
<path d="M3688 3759 c-21 -12 -23 -40 -6 -57 15 -15 45 -16 53 -2 4 7 -2 9
-19 4 -16 -4 -26 -2 -26 5 0 6 11 11 25 11 27 0 33 18 13 38 -14 14 -18 14
-40 1z m32 -19 c0 -5 -7 -10 -15 -10 -8 0 -15 5 -15 10 0 6 7 10 15 10 8 0 15
-4 15 -10z"/>
<path d="M531 3556 c-18 -21 -9 -51 14 -51 24 0 32 36 12 53 -11 10 -17 9 -26
-2z"/>
<path d="M342 3524 c4 -21 22 -23 26 -1 2 10 -3 17 -13 17 -10 0 -15 -6 -13
-16z"/>
</g>
</svg>
